<svg xmlns="http://www.w3.org/2000/svg" xmlns:xlink="http://www.w3.org/1999/xlink" width="375" height="114" viewBox="0 0 375 114">
    <defs>
        <path id="prefix__a" d="M0 0H375V114H0z"/>
    </defs>
    <g fill="none" fill-rule="evenodd">
        <mask id="prefix__b" fill="#fff">
            <use xlink:href="#prefix__a"/>
        </mask>
        <use fill="#FFF" xlink:href="#prefix__a"/>
        <g mask="url(#prefix__b)">
            <g>
                <g fill-rule="nonzero">
                    <path fill="#FFF1B2" d="M0.024 0L15.51 0 66.612 75.564 153.9 173.844 343.176 358.332 343.176 374.676 168.15 204.654 96.6 129.72 49.926 70.392z" transform="translate(-38 -279) translate(106.8)"/>
                    <path fill="#FFF1B2" d="M29.868 0h13.974s33.6 45.114 33.756 45.564c.156.45 59.352 71.4 59.352 71.4l24 27.942 182.334 180.732v15.3l-124.2-119.754-79.956-82.986-54.894-66.684L29.868 0z" transform="translate(-38 -279) translate(106.8)"/>
                    <path fill="#E1E1E3" d="M152.4 165.072v-3.15l32.4 33.06s78.96 75.12 79.182 76.26c.222 1.14 79.2 76.464 79.2 76.464v3.822l-80.772-78.282-66.366-62.856-43.644-45.318z" transform="translate(-38 -279) translate(106.8)"/>
                </g>
                <g fill="#F5F6F7" fill-rule="nonzero">
                    <path d="M10.8 285c.036-.336 30.408 16.644 30.408 16.644h3.6s19.122 10.23 19.009 9.894c-.115-.336-1.801-30.474-1.801-30.474l.9-3.036-3.822-3.036-3.6 1.35-26.436-15.858h-2.814l-3.822-2.472L10.8 285zM64.938 279.15c.336.222 9.672-5.736 9.672-5.736l13.272 7.536h4.614L74.61 317.16l-7.872-5.058-1.8-32.952zM0 303.102L8.1 288.15 39.708 304.344 40.38 306.93 71.652 321.432 63.78 336.162zM0 309.738L61.98 341.334 53.202 357.864 0 331.326zM0 413.19L19.122 423.312 50.73 362.7 29.472 353.37 0 410.268zM37.944 404.532L44.916 390.024 84.402 410.04 87.774 410.04 81.024 428.484 80.124 425.898zM47.616 384.642c.564-.114 7.086-14.616 7.086-14.616l34.422 15.966-1.35 9.45v10.68l-40.158-21.48zM57.294 365.4L65.502 349.77 99.588 366.414 91.152 383.394 89.238 380.358zM66.966 346.506L71.688 349.434 77.592 345.384 83.502 345.384 103.86 357.306 105.096 350.334 101.388 350.442 73.152 336.162z" transform="translate(-38 -279)"/>
                    <path d="M74.616 350.784L100.26 364.386 102.96 359.1 82.602 348.756 78.438 348.084zM75.642 330.99l7.632-15.948 30.822 14.4s-7.764 19.428-7.854 18.642c-.3-1.112-.675-2.202-1.122-3.264l-29.478-13.83zM85.188 312.156c.45-.396 29.808 15.234 29.808 14.898 0-.336 8.646-15.51 8.646-15.51L93.72 295.29l-8.532 16.866zM95.988 289.722c.564-.114 30.036 16.644 30.372 16.53.336-.114 12.822-22.152 12.822-22.152l-27.444-16.08-7.296.9-8.454 20.802zM189.462 239.232L255.378 275.892 246.15 292.194 187.098 259.698 182.826 259.926 180.348 257.898zM180.348 260.598L182.376 262.062 183.276 264.87 243 297.03 234.564 313.896 179.676 281.514 174.726 281.064zM173.826 283.314c.336 0 2.022 1.464 2.022 1.464v2.364l56.13 31.146-9.222 15.744-52.866-30.138h-5.514l9.45-20.58zM155.712 298.602c.786.222 6.414 4.158 6.414 4.158l9.672-22.266 4.722-21.366-16.422-9.336-14.622 26.49s9.672-.732 12.036 1.518c2.364 2.25 2.604 5.436 2.088 10.758-.516 5.322-3.888 10.044-3.888 10.044z" transform="translate(-38 -279)"/>
                    <path d="M139.968 290.172s12.258 7.536 12.6 7.422c.342-.114 4.2-7.2 4.272-10.458.072-3.258.564-5.736-2.136-7.308s-10.464.672-10.464.672l-4.272 9.672zM107.346 351.246c.45 0 30.372-58.248 30.372-58.248l22.524 11.916-31.2 62.862-41.28 82.314H73.716l17.208-39.918 1.464-23.166 14.4-27.438.558-8.322zM122.082 389.016L130.8 371.418 185.526 402.96 176.862 419.424zM133.218 366.414L141.654 351.342 195.762 381.594 187.998 397.674zM144.354 347.52L152.904 329.19 209.37 359.328 199.356 376.758zM155.718 323.682L164.376 306.816 219.942 337.176 211.734 354.27zM195.03 401.328L254.928 433.878 264.036 417.846 203.52 385.302zM206.784 380.442c.336 0 59.616 32.832 59.616 32.832l9.186-14.73s-60.36-36.096-59.856-35.646c.504.45-8.946 17.544-8.946 17.544zM218.976 357.864c.63-.564 7.608-15.63 7.608-15.63l60.18 32.724-7.422 13.152.336 5.064-60.702-35.31zM229.536 337.254L289.344 369.9 298.344 354.27 238.056 323.118zM241.182 317.724c.918 0 59.52 31.488 59.52 31.488l9.54-14.172s-60.402-34.524-60.402-34.2c0 .324-8.658 16.884-8.658 16.884zM252.864 295.458c.822.114 17.694 9.786 17.694 9.786l18.084-31.938-15.3-12.708-20.478 34.86zM275.724 307.938l36.564 21.702 7.872-13.494s-6.072-12.03-11.922-20.466c-5.85-8.436-15.3-18-15.3-18l-17.214 30.258zM282.684 394.524l7.674 5.25 14.058-2.286s9-18.93 11.922-23.874c2.922-4.944 15.75-19.902 15.75-19.902l-8.772-30.6-40.632 71.412zM330.438 364.05c-.078-.222 3.522-4.422 3.522-4.422l3.9 26.538-7.422-22.116zM326.538 369.522s-4.2 6.372-7.872 11.694c-3.672 5.322-6.75 13.116-6.75 13.116s27.126-2.772 27.126-2.544c0 .228-6.972-2.85-6.972-2.85l-5.532-19.416z" transform="translate(-38 -279)"/>
                    <path d="M262.314 239.232l16.65-19.266s9.45-1.5 9.822-1.2c.372.3 81.06 77.676 81.06 77.676l80.238 78.402v75.114h-93.288l-21-114.396 17.7-6.6s1.872-3.15-1.5-2.55c-3.372.6-17.754 6.03-17.754 6.03s-6.708-19.2-13.986-32.832c-7.278-13.632-35.13-40.2-37.482-42.282l-20.46-18.096zM267.168 144.246l49.848-52.662 55.116 51.954 77.952-2.022V262.62l-16.842 15.522s-2.622 5.022-1.236 9.444c1.386 4.422 11.634 13.578 18.108 21.138v16.758l-60.216-59.592s5.4-4.11 5.97-7.428c.57-3.318.846-5.454-.114-7.14s-18.108-10.908-18.108-10.908-3-.846-4.164.504c-1.164 1.35.9 2.814.054 3.54s-6.69-4.5-6.69-4.5 1.014-3.204 1.8-5.172c.786-1.968-.6-2.64-1.746-1.35s-3.51 6.204-3.51 6.204l-96.222-95.394z" transform="translate(-38 -279)"/>
                </g>
                <path fill="#E6E7E8" fill-rule="nonzero" d="M366.594 293.232c.3 1.5 27.33 156.852 27.33 156.852l56.046-.126v-75.114l-83.376-81.612z" transform="translate(-38 -279)"/>
                <g fill="#D3D0CD" fill-rule="nonzero">
                    <path d="M40.038 380.346L45.66 368.688 43.224 367.338 43.824 365.466 21.18 355.272 14.628 368.448z" transform="translate(-38 -279) translate(49.2)"/>
                </g>
            </g>
        </g>
    </g>
</svg>
