<?xml version="1.0" encoding="utf-8"?>
<!-- Generator: Adobe Illustrator 23.0.1, SVG Export Plug-In . SVG Version: 6.00 Build 0)  -->
<svg version="1.1" id="Layer_1" xmlns="http://www.w3.org/2000/svg" xmlns:xlink="http://www.w3.org/1999/xlink" x="0px" y="0px"
	 viewBox="0 0 16 15" enable-background="new 0 0 16 15" xml:space="preserve">
<g>
	<g>
		<rect x="5.904" y="3.733" fill="#EA611C" width="4.192" height="7.534"/>
		<path id="_Path__56_" fill="#E31221" d="M6.17,7.501C6.168,6.03,6.843,4.641,8,3.733C5.919,2.098,2.907,2.459,1.272,4.54
			c-1.635,2.08-1.274,5.093,0.807,6.728c1.737,1.365,4.184,1.365,5.921,0C6.843,10.36,6.169,8.971,6.17,7.501z"/>
		<path fill="#F49D1E" d="M15.752,7.501c0,2.646-2.145,4.791-4.791,4.791c-1.074,0-2.117-0.361-2.961-1.025
			c2.08-1.635,2.442-4.647,0.807-6.728C8.571,4.24,8.3,3.969,8,3.733c2.08-1.635,5.092-1.275,6.728,0.805
			c0.664,0.844,1.025,1.887,1.025,2.961V7.501z"/>
	</g>
</g>
</svg>
