<?xml version="1.0" encoding="utf-8"?>
<!-- Generator: Adobe Illustrator 23.0.1, SVG Export Plug-In . SVG Version: 6.00 Build 0)  -->
<svg version="1.1" id="Layer_1" xmlns="http://www.w3.org/2000/svg" xmlns:xlink="http://www.w3.org/1999/xlink" x="0px" y="0px"
	 viewBox="0 0 19 15" enable-background="new 0 0 19 15" xml:space="preserve">
<path fill="#1A1F71" d="M7.398,4.779l-2.287,5.456H3.62L2.494,5.881C2.426,5.613,2.367,5.515,2.159,5.402
	c-0.339-0.184-0.9-0.357-1.392-0.464L0.8,4.779h2.402c0.306,0,0.581,0.204,0.651,0.556l0.594,3.157l1.468-3.713H7.398z
	 M13.244,8.454c0.006-1.44-1.99-1.52-1.977-2.163c0.004-0.195,0.191-0.404,0.598-0.457c0.202-0.026,0.76-0.047,1.392,0.244
	l0.247-1.157c-0.34-0.123-0.777-0.241-1.32-0.241c-1.395,0-2.377,0.741-2.385,1.803c-0.009,0.785,0.701,1.223,1.235,1.485
	c0.55,0.267,0.735,0.439,0.732,0.678c-0.004,0.366-0.439,0.528-0.844,0.534c-0.71,0.011-1.122-0.192-1.45-0.345l-0.256,1.196
	c0.33,0.151,0.939,0.283,1.569,0.29C12.269,10.32,13.239,9.588,13.244,8.454 M16.928,10.235h1.305l-1.14-5.456h-1.204
	c-0.271,0-0.5,0.157-0.601,0.4l-2.118,5.056h1.482l0.294-0.815h1.81L16.928,10.235z M15.353,8.302l0.743-2.049l0.427,2.049H15.353z
	 M9.415,4.779l-1.167,5.456H6.837l1.167-5.456H9.415z"/>
</svg>
